/* XPM */
static char *result[] = {
/* columns rows colors chars-per-pixel */
"50 33 144 2 ",
"   c #040C02",
".  c #0F0F09",
"X  c #001400",
"o  c #0C1407",
"O  c #011B00",
"+  c #0A1A06",
"@  c #0F190A",
"#  c #16170E",
"$  c #1C1912",
"%  c #211C03",
"&  c #2E190F",
"*  c #33160A",
"=  c #211B15",
"-  c #271F19",
";  c #012300",
":  c #0B2505",
">  c #002B00",
",  c #0E2209",
"<  c #142E04",
"1  c #16200E",
"2  c #102C0A",
"3  c #013400",
"4  c #093106",
"5  c #013B01",
"6  c #083805",
"7  c #0A3608",
"8  c #1D3E07",
"9  c #103F0A",
"0  c #1B2412",
"q  c #1C2913",
"w  c #272805",
"e  c #212215",
"r  c #212816",
"t  c #262419",
"y  c #000000",
"u  c #000000",
"i  c #000000",
"p  c #000000",
"a  c #3B2D26",
"s  c #3E2E28",
"d  c #4D240C",
"f  c #512B09",
"g  c #402212",
"h  c #583118",
"j  c #583F19",
"k  c #6B3F17",
"l  c #64391A",
"z  c #432E27",
"x  c #000000",
"c  c #000000",
"v  c #000000",
"b  c #000000",
"n  c #000000",
"m  c #000000",
"M  c #000000",
"N  c #000000",
"B  c #014300",
"V  c #084705",
"C  c #014B01",
"Z  c #064309",
"A  c #0E490A",
"S  c #10410A",
"D  c #015201",
"F  c #025B01",
"G  c #095907",
"H  c #0A5409",
"J  c #145B05",
"K  c #185810",
"L  c #244D12",
"P  c #354118",
"I  c #38421A",
"U  c #026502",
"Y  c #016B01",
"T  c #0E600E",
"R  c #037303",
"E  c #007E00",
"W  c #06720E",
"Q  c #0A7B0A",
"!  c #087911",
"~  c #326016",
"^  c #3B6612",
"/  c #66421D",
"(  c #000000",
")  c #61432B",
"_  c #684728",
"`  c #775332",
"'  c #000000",
"]  c #000000",
"[  c #000000",
"{  c #008200",
"}  c #028A06",
"|  c #009600",
" . c #039E06",
".. c #0B960B",
"X. c #05980B",
"o. c #0E8E15",
"O. c #118711",
"+. c #168F16",
"@. c #1A911A",
"#. c #219E0B",
"$. c #2C8E1D",
"%. c #3E8413",
"&. c #318E1D",
"*. c #29941C",
"=. c #03A607",
"-. c #04AB0B",
";. c #07B30E",
":. c #0FA211",
">. c #0FAB19",
",. c #22B71D",
"<. c #1EBC25",
"1. c #26AC23",
"2. c #4E8D17",
"3. c #528A18",
"4. c #54931D",
"5. c #659A1E",
"6. c #4CBC1A",
"7. c #4CA420",
"8. c #57AE25",
"9. c #4FB624",
"0. c #72B424",
"q. c #0DC71D",
"w. c #2BCC1D",
"e. c #0ECC20",
"r. c #13D729",
"t. c #14D82A",
"y. c #2ED422",
"u. c #22DF2B",
"i. c #25E22C",
"p. c #32EA31",
"a. c #47CF24",
"s. c #54F936",
"d. c #66E732",
"f. c #6AF735",
"g. c #76FF38",
"h. c #82FE38",
"j. c #000000",
"k. c #000000",
"l. c #000000",
"z. c #000000",
"x. c #000000",
"c. c #000000",
"v. c #000000",
"b. c #000000",
/* pixels */
"b.b.b.b.b.b.b.b.b.b.b.b.b.b.b.b.b.b.b.b.b.b.b.b.b.b.b.b.b.b.b.b.b.b.b.b.b.b.b.b.b.b.b.b.b.b.b.b.b.b.",
"b.b.b.b.b.b.b.b.b.b.b.x.l.l.l.l.l.l.l.l.l.l.l.l.l.l.l.l.l.l.l.l.z.z.l.l.l.l.l.l.c.b.b.b.b.b.b.b.b.b.",
"b.b.b.b.b.b.b.b.b.b.v.] N ( ( N ( ( ( ( ( ( ( ( N M n M ( ( ( ( ( ( ( ( ( ( ( N k.b.b.b.b.b.b.b.b.b.",
"b.b.b.b.b.b.b.b.b.b.v.' x c c c c c c c c c c x z h _ ) z c c c c c c c c c c x j.b.b.b.b.b.b.b.b.b.",
"b.b.b.b.b.b.b.b.b.b.v.' c c c c c c c c c c c z g / [ ` g c v c c c c c c c c x j.b.b.b.b.b.b.b.b.b.",
"b.b.b.b.b.b.b.b.b.b.v.' c c c c c c c c c c c y * d l h & i c c v n c c c c c x j.b.b.b.b.b.b.b.b.b.",
"b.b.b.b.b.b.b.b.b.b.v.' c c c c c c c c c c t + % f k j < 2 i c c c c c c c c c j.b.b.b.b.b.b.b.b.b.",
"b.b.b.b.b.b.b.b.b.b.v.' x c c c c c c c c c # ; > w w 8 D > - c c c c c c c c x j.b.b.b.b.b.b.b.b.b.",
"b.b.b.b.b.b.b.b.b.b.v.' c c c c c c n c c c y + > 3 3 B 5 1 a c c c c c c n c c j.b.b.b.b.b.b.b.b.b.",
"b.b.b.b.b.b.b.b.b.b.v.' c c c c c c c c v c s . X O ; ; X = c c c c c c c c c x j.b.b.b.b.b.b.b.b.b.",
"b.b.b.b.b.b.b.b.b.b.v.' c c c c c c c c c c s . X 4 V 5 O = c c c c c c c c c c j.b.b.b.b.b.b.b.b.b.",
"b.b.b.b.b.b.b.b.b.b.v.' c c c c c c c c c c p o X A *.D B 0 s c v c n c c c c c j.b.b.b.b.b.b.b.b.b.",
"b.b.b.b.b.b.b.b.b.b.v.' c c c c c c c c c c # O O Z o.C Y 6 t c c c c c c c c x j.b.b.b.b.b.b.b.b.b.",
"b.b.b.b.b.b.b.b.b.b.v.' x c c c c c c c c p o O O 3 F V Q T q s c c c c c c c c j.b.b.b.b.b.b.b.b.b.",
"b.b.b.b.b.b.b.b.b.b.v.' c c c c c c n c p @ O ; 3 > 5 U @.@.H q s c c c c c c x j.b.b.b.b.b.b.b.b.b.",
"b.b.b.b.b.b.b.b.b.b.v.' x c c c c c c i @ O ; 3 C 5 5 Y O.+.W B q s c c c c c c j.b.b.b.b.b.b.b.b.b.",
"b.b.b.b.b.b.b.b.b.b.v.' c c c c c v p 9 5 O ; 5 C B D F R Q Y V ^ I a c c c c x j.b.b.b.b.b.b.b.b.b.",
"b.b.b.b.b.b.b.b.b.b.v.' c c c c c c r W G O ; 5 5 Y #.%.F Y D B 7.~ p v c c c c j.b.b.b.b.b.b.b.b.b.",
"b.b.b.b.b.b.b.b.b.b.v.' c c c c c p A >.1.S > 3 3 } y.9.G F B F ,.8.P a c c c c j.b.b.b.b.b.b.b.b.b.",
"b.b.b.b.b.b.b.b.b.b.v.' c c c c c t F w.$.6 3 > D  .i.d.2.B B C ..a.L a c c c c j.b.b.b.b.b.b.b.b.b.",
"b.b.b.b.b.b.b.b.b.b.v.' c c c c c t F 6.~ ; 5 3 Y -.i.g.0.S B 3 Y :.S p c c c c j.b.b.b.b.b.b.b.b.b.",
"b.b.b.b.b.b.b.b.b.b.v.' c c c c c t C J : ; > C E -.u.s.h.3.5 3 5 R 7 a c c c x j.b.b.b.b.b.b.b.b.b.",
"b.b.b.b.b.b.b.b.b.b.v.' c c c c c t 6 3 X ; ; D E -.t.p.h.5.> 3 > F 4 p c c c x j.b.b.b.b.b.b.b.b.b.",
"b.b.b.b.b.b.b.b.b.b.v.' c c c c c t ; ; O ; O B R =.e.i.f.4.> ; O 5 : a n c c c j.b.b.b.b.b.b.b.b.b.",
"b.b.b.b.b.b.b.b.b.b.v.' c c c c c y , ; O O X 3 Y | ;.t.p.&.; ; ; ; 0 a c c c x j.b.b.b.b.b.b.b.b.b.",
"b.b.b.b.b.b.b.b.b.b.v.' x c c c c c e > ; X X 3 F { -.r.p.$.O O > : i c c c c c j.b.b.b.b.b.b.b.b.b.",
"b.b.b.b.b.b.b.b.b.b.v.' c c c c c c u , ; O X ; C R =.q.<.K X O ; 0 s c c c c x j.b.b.b.b.b.b.b.b.b.",
"b.b.b.b.b.b.b.b.b.b.v.' x c c c v c c p , O X X 3 D U X.! O X O 0 s c c c v c c j.b.b.b.b.b.b.b.b.b.",
"b.b.b.b.b.b.b.b.b.b.v.' c c c c c c c c y @ X X O 3 B D 5 X   $ a c c c c c c x j.b.b.b.b.b.b.b.b.b.",
"b.b.b.b.b.b.b.b.b.b.v.' c c c c c c c c c p @     + ; o     $ a c c c c c c c x j.b.b.b.b.b.b.b.b.b.",
"b.b.b.b.b.b.b.b.b.b.v.] ( ( ( ( ( ( ( ( ( ( b b v v b v v b m ( ( ( ( ( ( ( ( ( k.b.b.b.b.b.b.b.b.b.",
"b.b.b.b.b.b.b.b.b.b.b.x.l.l.z.z.z.x.z.z.x.z.z.z.z.z.z.z.z.z.z.z.x.z.l.l.x.z.l.l.c.b.b.b.b.b.b.b.b.b.",
"b.b.b.b.b.b.b.b.b.b.b.b.b.b.b.b.b.b.b.b.b.b.b.b.b.b.b.b.b.b.b.b.b.b.b.b.b.b.b.b.b.b.b.b.b.b.b.b.b.b."
};
