/* XPM */
static const char *NTdkYTI4ZjFmODhmZTc1YzY1MWY5ZWE0ZjQ1ZGUwNzgrJTI4MSUyOQ__[] = {
/* columns rows colors chars-per-pixel */
"44 50 220 2 ",
"   c #3D2613",
".  c #552E0C",
"X  c #5B2D0D",
"o  c #55310C",
"O  c #59310D",
"+  c #472C17",
"@  c #5C2F10",
"#  c #572E10",
"$  c #4D351E",
"%  c #5E3A15",
"&  c #56361E",
"*  c #5B361D",
"=  c #58371A",
"-  c #4E270A",
";  c #633515",
":  c #623A16",
">  c #66371A",
",  c #653A1B",
"<  c #6A3C1D",
"1  c #693716",
"2  c #703E1D",
"3  c #7E3F1C",
"4  c #4C3524",
"5  c #4E3925",
"6  c #493828",
"7  c #513622",
"8  c #543A23",
"9  c #5B3C23",
"0  c #593F2D",
"q  c #563C2A",
"w  c #523D31",
"e  c #663E22",
"r  c #6C3E22",
"t  c #723E21",
"y  c #6C411E",
"u  c #664019",
"i  c #77431F",
"p  c #5C422C",
"a  c #5A4636",
"s  c #4B4231",
"d  c #654126",
"f  c #6D4323",
"g  c #64442A",
"h  c #6D452A",
"j  c #6F482A",
"k  c #6A4929",
"l  c #734425",
"z  c #794626",
"x  c #744926",
"c  c #7A4827",
"v  c #754629",
"b  c #794629",
"n  c #754A2B",
"m  c #7B4B2C",
"M  c #77502D",
"N  c #7B512D",
"B  c #624B34",
"V  c #6D4B32",
"C  c #6B4D38",
"Z  c #654A37",
"A  c #744D32",
"S  c #7C4E31",
"D  c #66503C",
"F  c #6B513D",
"G  c #755135",
"H  c #7B5233",
"J  c #74533A",
"K  c #79563B",
"L  c #7C593F",
"P  c #614E40",
"I  c #655243",
"U  c #6D5543",
"Y  c #6A5946",
"T  c #6D5D4B",
"R  c #615348",
"E  c #715846",
"W  c #725E4C",
"Q  c #795A45",
"!  c #6F5F52",
"~  c #72614F",
"^  c #736352",
"/  c #7A6B5A",
"(  c #6A6457",
")  c #676C69",
"_  c #726F60",
"`  c #79736A",
"'  c #697372",
"]  c #7B7B75",
"[  c #7B7E7A",
"{  c #757877",
"}  c #656F70",
"|  c #804D2D",
" . c #854A27",
".. c #82512E",
"X. c #814E31",
"o. c #825233",
"O. c #865E3A",
"+. c #855C39",
"@. c #8D724A",
"#. c #887147",
"$. c #93764E",
"%. c #9A7753",
"&. c #8E6F53",
"*. c #A37B57",
"=. c #8A7766",
"-. c #917A67",
";. c #857C72",
":. c #887D73",
">. c #807F7B",
",. c #A67E64",
"<. c #9D8259",
"1. c #978054",
"2. c #A4845C",
"3. c #8F806D",
"4. c #83837D",
"5. c #8E867A",
"6. c #000000",
"7. c #000000",
"8. c #000000",
"9. c #9F907D",
"0. c #91826F",
"q. c #A68166",
"w. c #AB8462",
"e. c #AB8C64",
"r. c #AC846A",
"t. c #AB8B67",
"y. c #B0866B",
"u. c #B0886C",
"i. c #A78872",
"p. c #B18C71",
"a. c #AF9171",
"s. c #747E80",
"d. c #7B8585",
"f. c #7E898A",
"g. c #778485",
"h. c #838684",
"j. c #858985",
"k. c #8B8B85",
"l. c #818C8D",
"z. c #8D8D8A",
"x. c #8A8782",
"c. c #958D82",
"v. c #968E86",
"b. c #8E908B",
"n. c #9B9184",
"m. c #92928D",
"M. c #9C948A",
"N. c #8A9698",
"B. c #939593",
"V. c #9C9B95",
"C. c #939798",
"Z. c #969A9B",
"A. c #9C9D9B",
"S. c #949896",
"D. c #A39686",
"F. c #A1968B",
"G. c #A89A89",
"H. c #A29C93",
"J. c #A69F96",
"K. c #AA9688",
"L. c #9EA19B",
"P. c #B3A18E",
"I. c #ABA196",
"U. c #A3A29D",
"Y. c #ACA49B",
"T. c #AAA59A",
"R. c #B0A79E",
"E. c #B1A89F",
"W. c #B9A698",
"Q. c #979FA1",
"!. c #9BAAAE",
"~. c #97A4A7",
"^. c #9EAEB3",
"/. c #9FB1B5",
"(. c #A3A5A3",
"). c #A3A8A6",
"_. c #ACABA4",
"`. c #A3ACAB",
"'. c #AAAEAB",
"]. c #A8A6A4",
"[. c #B2ABA3",
"{. c #B6ADA4",
"}. c #ADB3AE",
"|. c #B7B3AA",
" X c #A1AFB3",
".X c #A9AEB1",
"XX c #A3B1B5",
"oX c #ABB3B5",
"OX c #A4B5B9",
"+X c #AEB8B7",
"@X c #B4BABC",
"#X c #B7B7B4",
"$X c #C6C3BA",
"%X c #B9BEC1",
"&X c #B7BFC1",
"*X c #BBC1C2",
"=X c #B6C3C5",
"-X c #C8CBCC",
";X c #C9D4D5",
":X c #D2D6D3",
">X c #D7DBDB",
",X c #C6D0CF",
"<X c #DEE2DE",
"1X c #D0DFE2",
"2X c #DFEDF0",
"3X c #E6EAE9",
"4X c #000000",
"5X c #000000",
"6X c #000000",
"7X c #000000",
"8X c #000000",
"9X c #000000",
"0X c #000000",
"qX c #000000",
"wX c #000000",
"eX c #000000",
"rX c #000000",
"tX c #000000",
"yX c #000000",
"uX c #000000",
/* pixels */
"rXrXrXrXtXrXtXtXtXrX8X8X7X7X7X8X5X2X>X,X,X`.+X,X;X>X2X5X7X7X7X7X8XyX7X8XrXtXrXtXrXrXrXtX",
"rXrXrXrXrXrXrXtXrXtX6XyX8X6X:X@X`.`.`.'.).{ j.}.).`.`.oX=X;X5X7X8X8X8XtXrX8XrXrXrXrXrXtX",
"rXrXrXrXrXtXtXrXtXrXtX>X'.m.B.A.U.U._.|.|.6.M.$X{.|.|.'.(.~.).'.:X4X8X8XrXrX6XrXrXrXrXrX",
"rXrXrXrXrXrXrXtXrX:X(.m.V.].[.E.{.I.D.D.G./ ` n.G.I.{.{.{.[.[._.L.}.<XrX4XyXrXtXrXrXrXrX",
"rXrXtX6XrXrXyX3Xb.m.V.Y.[.J.n.8.Y D p q p   + q 0 8 0 W 8.W.W.J.H.#X] B.6XrXtXrXrXrXrXrX",
"rXrXrXrXrX7X;X).) ] V.Y.8.^ p 7 9 g g g G = g K h A V 9 + p &.P.{.k.( x.#X<XrX6XrXrXrXrX",
"tXrXrXrX6X-XQ.h.B.x.` T a 7 9 A n H A M H X > m m v h n H A * + ^ _ I._.m.U.-XrXrXrXrXrX",
"tXrXrX6X-XS.z.A._.` a 5 g V n j m l < x o.X ; m x x v n n n A V 5 s H.R.H._.A.>XrXrXrXrX",
"yXtXrX>Xz.m.z.U.;.a 4 C K h f m H f < m o.X 1 | z b x l S S n h E 5 6 F.Y.V._.B.>XrX6XrX",
"rXrX4Xz.m.z.[.;.w w C K n f x b H f < m o.X 1 | c m x l S S v h V F a 4 8.[.V.(.oXuX8XrX",
"yXrX#X4.m.H.5.w 0 B J A l z c l m e , n o.X , m c m v l S S n v h K V $ a I.H.V.B.*X8X8X",
"8X3Xj.B.c.n.P q Q V h n b b c z m e , v o.@ , c b b l l m S A n n S h Q + ! {.V.A.).3X7X",
"8X+Xh.z.I./ q C A r l o.m l l m n d , v H @ , m z b l l m S n l b c l e J   M._.U.B.*X8X",
"uXf.[ ] M.I 8 n v l c X.c l c n A h d n H X , m b m x l m m f < c c z , Q 5 R n.4.{ B.6X",
"1Xg.' ` ^ 7 V S o.z z c z c m v S n j n H X , m b m z x m m r <  .3 z S g E 6 ` 4.4.h.<X",
"=Xd.B.M.=.+ L f b 2 l | | l x m S n n m N . , m c m b x S S f <  .z z l V J 6 :.Y._.S.:X",
"OXd.j.M.Y & G H m x x m m x l n m n n n H . , m m S v r S o.n , c c l n H J 5 / T.L.C.@X",
"/.f.z.c.-.q j l x f f l l f f x m x l n M o > m n m l r S H h , n b l l G K $ ~ I.V.C.@X",
"!.l.m.5.K.g h > < > > < < > , l c x l n n . , n m m v v S n d f m | x l n G 8 ^ R.U.Z.=X",
"~.l.m.7.9.g j > y , > < y < < l c x l n n . , n S S v b m v r d v z l f j V p 0.I.V.C.@X",
"^.f.m.M.&.9 n f x l l m m x x b c z l n n . , m b b l l v r > < > 1 ; > e g B P.I.V.C.@X",
"OXf.k.H.D & H n n x n m m n x c c z x n n . , m m m b l b v < < r < , < f d p G.Y.L.Z.=X",
"!.s.[ c.a & H n b l l b b l l c | z x b M o , m m X.b l m S v f m m x l n V 8 / c.k.h.`.",
"N.' ) ;.D 9 H n m x l n n l x c | c x b M o , m v S b t m o.m l x m x l H L $ a ;.] { ~.",
"^.l.b.F.E 9 H m n l l m m l l b c b l N N o % H x o.X.t | b S l | b l v S G 8 ~ E.U.A.&X",
"XXl.b.M.U & H m z l l m m l l b o...l M M o % H n b b t | b m l | c l v S J 8 ^ Y.A.C.@X",
" Xl.z.M.U * H m x 2 l m m x l b z i ; M H % % H +.x x t X.b b l m b l l m J 8 ^ Y.V.C.@X",
" Xf.k.M.U * H n x 2 r b m x x c ..N n %.e.$.@.w.%.m x l X.b x l c z l l n G 8 W R.A.C.@X",
" Xl.z.F.E 9 S v b 2 r b m c l b i i u %.e.<.$.t.w.n x l | b v b c c l l n J 8 W R.U.C.@X",
"XXl.z.F.E 9 S x m l t b m c l c N m u %.e.<.@.t.w.f l l m m v b c | z x m K 8 W Y.A.C.@X",
"~.s.>.7.F * S b X.l l b m z l c ..N , %.2.1.#.e.2.y l l m | x x c | b x n K 8 Y M.z.z.oX",
"N.} ` ;.B & H S o.x l m m z l c m x : 2.e.<.@.e.2.y m x m H x 2 z b z l n G & I ;.] { Z.",
"XXl.b.M.U 9 H l v b l m m l b b H x % 2.e.2.@.e.w., x n x +.l l m m x l A K 8 ~ E.U.A.%X",
"~.g.x.n.U 9 H n x x r n b l z x n k y *.2.*.%.a.*.x m m x N f y l b x l G J 8 ^ Y.J.C.@X",
"XXl.m.M.U & H n m v r n m l b n m x f O.O.f f +.O.m l x m m x l l c x l n A $ ^ I.A.C.@X",
"~.g.z.n.U & H m S v < m S v b n n x l x M O , x l m : y m n m x x m x f n G 8 ^ Y.A.C.@X",
" Xl.m.M.U & H n S l > v m l z x m x x x H ; f m l o.; , M x M f x b x l H K 8 ^ Y.V.C.@X",
"XXl.z.n.U & S l X.l > v m l b b m n l l m X : f x N ; : n n M x n | m n H G $ T R.U.A.%X",
"N.} ` 6.Z & H n o.x < m S l b m x l l m m ; < H x x , , x n x f x m b l j V 8 / :.] { Z.",
"~.g.[ 5.D & A f S l , n m r x c b b l H b X ; m m x f y f f u : : l < ; , V Z 9.c.k.j..X",
"OXg.m.n.W 9 K m X.b v n b v b o.m x l m o.@ < m n n f , < , , < < , > > , d B G.Y.U.Z.%X",
"XXg.m.n.8.g j < x < < r r < 2 x S b v S o.X < H n n f , h n f l l x l l n V p 3.I.V.C.@X",
"!.g.b.7.P.V e < t , , r < > , < S b b S o.X < H S m f f n m v l b m x l H G 8 ^ Y.J.C.&X",
"!.l.m.c.8.d r n x l r v l r < l S v x m S X > S m m f f n n l l n b y > n K 8 T I.V.C.@X",
" Xl.z.c.E 9 n m m v v m m x x b S l < v S @ > n v m x l n v l l b m y ; h K q ~ [.U.Q.*X",
"~.' ] 5.p d H l m v v m m x x b S f > l m X > v l b v x m v x b z m l > h G $ Y 5.4.[ ~.",
"Q.' ] 5.Z 9 H n m x v m m v z m m f , l S @ , m n m v b S S b b b c y > j G $ Y c.x.d.).",
"OXf.B.M.~ & A H S n n S S n m H n h d n S # r H S S n v X.S v t m m r < A L q ^ [.U.A.*X",
"~.d.j.5.I 8 d e f < < f h e e h j , * d j - * d d j f r h l r f r f < d d g 5 I I.V.C.+X",
"-X.X#X#Xn.-.i.r.r.w.w.y.y.q.q.r.p.q.,.u.p.&.,.u.r.u.r.,.r.y.r.r.r.y.q.r.r.i.-.D.$X#X@X;X"
};
