/* XPM */
static char *result[] = {
/* columns rows colors chars-per-pixel */
"50 50 65 1 ",
"  c #731F1F",
". c #75211F",
"X c #7C241F",
"o c #450B27",
"O c #4C0E26",
"+ c #440C28",
"@ c #490E28",
"# c #4E1026",
"$ c #4E1128",
"% c #541326",
"& c #5B1624",
"* c #5D1826",
"= c #541529",
"- c #56182A",
"; c #5B1929",
": c #641B24",
"> c #6C1E22",
", c #621D28",
"< c #701F21",
"1 c #6D2125",
"2 c #662029",
"3 c #6B2228",
"4 c #732222",
"5 c #7A2621",
"6 c #772827",
"7 c #7D2A24",
"8 c #722628",
"9 c #7E2E28",
"0 c #81271E",
"q c #85291D",
"w c #8C2C1C",
"e c #912F1B",
"r c #95311B",
"t c #9C341A",
"y c #9E391D",
"u c #A13619",
"i c #A53B1C",
"p c #A93E1C",
"a c #822C23",
"s c #892F22",
"d c #812F28",
"f c #843027",
"g c #8C3526",
"h c #8F3827",
"j c #853229",
"k c #8B3629",
"l c #8E3829",
"z c #933522",
"x c #923927",
"c c #9C3C23",
"v c #933A29",
"b c #9A3F2A",
"n c #A13F23",
"m c #AC411E",
"M c #B2451F",
"N c #B5481F",
"B c #9B4029",
"V c #A64224",
"C c #AA4423",
"Z c #AE4927",
"A c #A44428",
"S c #B24620",
"D c #B34B25",
"F c #B94C22",
"G c #B54E28",
/* pixels */
"kv98k$3vj:&&%@4vj144.f8+#kxhgkg*o%jkkkkvkj%+:98v6%",
"pprtp7Vmprrtqfnppputtuu>jMiippmB:dMpppiSmi>3turpuw",
"rttttqcteuuuevprtttttttw7yrtrttuqgpetttttuaaptttru",
"ttter1rie.qtwautuuutttuq:tittttr0<utuueewr :reecuu",
"77511-1.>:,1%O:>>> 47a7,;>>.qq62-;7a1>1>::&,,,>><7",
"VVVCVCV2:CCn0X:>>%.7nVVGV>2gVZCVCDCn&2VDCCCnVCGd&n",
"ttttttu5Xuttut0cr:tuttttuegptutttutuwvpttttttturau",
"uttutyu4quttuttpr>ttttutue.tutyuutuuehptuutuutue4t",
"werwwq.%.rwrewq0.%wwweeae.&wwwwwwwrw:&7wewereer4,z",
"71;kxgf4.X>%&xxkkjhvg>::&=9hxxxhv5$6jjk7:>:%%%>:4b",
"yrkmippuutt43nippppiitrrw4mpippppu<smppte0sx&qrrui",
"yrhprtttttuX9uttttettttpq.ttttrttu<<ttttncCi>ruutt",
"e<1trttizwt>#etetuuuuuttf.uyrtytet>5euuuupur>0trtt",
"1=*14..1721,&a574<><<4<%=%<44*<q,7,;&<<<>>44--4:5s",
"VVCVcq>$gCVCCVVg:=,aXXXXXXXXy2kCDnGDaX.07=xCntCzcV",
"tttttuw1CttttttqcnvptuuuuttytqCtutuutuuunxpttttttt",
"tttttue,iuturrtiieauttuttutti5eutttttiuuzauutttttt",
"rrrwew.O<ew4:qewq:o>weeerw0q.%:qreewq7..7:X7eeee04",
":>&6g=1jkhkk3O5vkja*:::&*kjgk1&:&&jgggd*%&O&xj7xa%",
"trzpi7VmSppmraiNDpptret0fmpppttt0gMippptttaampnicg",
"ttuttaVtetttwvpetrttttur4tettttur7ttttrtuut4rtttnp",
"ttttt5rpwqtuwjituutttttq.uuutttt0:tutuueweq<trtuuu",
"7aaa7%&4>&&4&%:55<aaaa7,;><5a7aa,;:>&>71:,;,4&> <<",
"DDVCDz.,4XX.XX4za,VVVVVCV>OxCVVVCn54&,VVCCCCg.X:%<",
"iittuut5Cuuuuuuuevptttttte>rttttttuuwgptttttuutqXu",
"tttuttr5Vuuttttue7uuututue>uutuutttie4ututuutunc<u",
"weewwq4&4ewwewX>:o.eewe0q:%0wwwweeq.&%5wwwwwewX4%0",
"*&-kvkkjk7:&;gkkjjs>::::%%dgvkhk>&@,hkkhggvj-&jk6j",
"r0jMippppttq8piMMpptrtetwkMppipite>xDFmipipi7cSFpp",
"irsutertttiejtttetrttttiqaurttrtuusCttttttttaCtert",
"t.>ttuuuewt0%rwqtuutttte:&rttrteew>stttuuute:0tttt",
":=;aq7<<>,5,;1%&4<<0aa1,--5a4:44,;=*4qa44>5,=,7574",
"GGVCDg.:gCVCCz.X0>3VVVVCCCVVn:gCCCCCVCnq:,VnGGCcnC",
"iittuuuaCtttttuuu.kpttttttttu7zutttrtttuevptuutuuu",
"uttuttr>itttuttuuq>tttuttuttu0nuttuutuuuevputuutee",
"wwwwwqX%.eVc0rwwe4@*.weeew>0w&:qeewwww0.>:X4qwwq:%",
"vxf7k%1gkhcB4$6Bhk9*&:>%-xhkxjkk&&gvvxgkjdO$kbhhd6",
"pinCp7VNmiipr9CmipptttrqsCGmipSpqjMCDiiMnp>dSFpppp",
"ttttt0ctrtttevmrttttttur*rttttetr5ttttrtuuwgprtttt",
"ttttu.qiutttwfreuttttttq1tutuuutq%eiuuuttr<4tetrtt",
"q71X5=3.<aqf1*2*447qa74%%><>..4*=;5<<<<:::&,4,a::a",
"VVfzcVV36cVVVCV5%3VVZCVrX:25X.XXzCn5O%a5annnnnVs:n",
"typiyyuqcittttVBwvptyytturaptuuuuttuwspuutttttue0u",
"tttttttXcuttttumrXuttyutuw7itttttutue:tututuuuur>e",
"rrrwww.%>wwrrrX:*&wwwwwX0:&wwwwwweea%O<qeeseeea>OX",
"52=ghgg9&&:%%:4hffhhhhcj=%fxxgxxv6$<jsdkgj7>O,jjjx",
"uwkmmmmmyrrk8ryNmpmpmiCmwfNFpippSu5npppppitr4Vpppp",
"uwhpyputipmyfitrtrrtrrtrXxprttttruantrtrtrtuaCttrr",
"r41utttuwwtX%tttuytytttg&7pwwrutrr<etuutuute4nuuuu",
"%+#>>.452$>#o1><...4.4&Oo%>%%%11%$O&<444<4:%o,444<"
};
